<svg xmlns="http://www.w3.org/2000/svg" width="900" height="560" viewBox="0 0 900 560"><rect width="100%" height="100%" fill="#f8f5ed"/><style>text{font-family:Arial,sans-serif;fill:#172033}.label{font-weight:700;font-size:24px}.small{font-size:16px}</style><text x="30" y="35" class="label">SEQUENCE — WHICH OPTION IS FRAME 4?</text><rect x="35" y="60" width="180" height="205" fill="#fff" stroke="#172033"/><text x="43" y="85" class="label">1</text><rect x="106" y="152" width="26" height="26" rx="3" fill="#6d8fd6" stroke="#172033" stroke-width="2"/><rect x="132" y="126" width="26" height="26" rx="3" fill="#6d8fd6" stroke="#172033" stroke-width="2"/><rect x="80" y="100" width="26" height="26" rx="3" fill="#6d8fd6" stroke="#172033" stroke-width="2"/><rect x="106" y="126" width="26" height="26" rx="3" fill="#6d8fd6" stroke="#172033" stroke-width="2"/><rect x="132" y="100" width="26" height="26" rx="3" fill="#6d8fd6" stroke="#172033" stroke-width="2"/><rect x="132" y="178" width="26" height="26" rx="3" fill="#6d8fd6" stroke="#172033" stroke-width="2"/><rect x="106" y="100" width="26" height="26" rx="3" fill="#6d8fd6" stroke="#172033" stroke-width="2"/><rect x="106" y="178" width="26" height="26" rx="3" fill="#6d8fd6" stroke="#172033" stroke-width="2"/><rect x="240" y="60" width="180" height="205" fill="#fff" stroke="#172033"/><text x="248" y="85" class="label">2</text><rect x="285" y="126" width="26" height="26" rx="3" fill="#6d8fd6" stroke="#172033" stroke-width="2"/><rect x="337" y="126" width="26" height="26" rx="3" fill="#6d8fd6" stroke="#172033" stroke-width="2"/><rect x="285" y="100" width="26" height="26" rx="3" fill="#6d8fd6" stroke="#172033" stroke-width="2"/><rect x="363" y="126" width="26" height="26" rx="3" fill="#6d8fd6" stroke="#172033" stroke-width="2"/><rect x="311" y="126" width="26" height="26" rx="3" fill="#6d8fd6" stroke="#172033" stroke-width="2"/><rect x="363" y="100" width="26" height="26" rx="3" fill="#6d8fd6" stroke="#172033" stroke-width="2"/><rect x="285" y="152" width="26" height="26" rx="3" fill="#6d8fd6" stroke="#172033" stroke-width="2"/><rect x="311" y="100" width="26" height="26" rx="3" fill="#6d8fd6" stroke="#172033" stroke-width="2"/><rect x="445" y="60" width="180" height="205" fill="#fff" stroke="#172033"/><text x="453" y="85" class="label">3</text><rect x="516" y="152" width="26" height="26" rx="3" fill="#6d8fd6" stroke="#172033" stroke-width="2"/><rect x="490" y="100" width="26" height="26" rx="3" fill="#6d8fd6" stroke="#172033" stroke-width="2"/><rect x="516" y="126" width="26" height="26" rx="3" fill="#6d8fd6" stroke="#172033" stroke-width="2"/><rect x="490" y="178" width="26" height="26" rx="3" fill="#6d8fd6" stroke="#172033" stroke-width="2"/><rect x="542" y="178" width="26" height="26" rx="3" fill="#6d8fd6" stroke="#172033" stroke-width="2"/><rect x="490" y="152" width="26" height="26" rx="3" fill="#6d8fd6" stroke="#172033" stroke-width="2"/><rect x="516" y="100" width="26" height="26" rx="3" fill="#6d8fd6" stroke="#172033" stroke-width="2"/><rect x="516" y="178" width="26" height="26" rx="3" fill="#6d8fd6" stroke="#172033" stroke-width="2"/><text x="30" y="310" class="label">OPTIONS</text><rect x="35" y="330" width="185" height="195" fill="#fff" stroke="#7d8799"/><text x="43" y="355" class="label">A</text><rect x="80" y="400" width="25" height="25" rx="3" fill="#df875f" stroke="#172033" stroke-width="2"/><rect x="130" y="400" width="25" height="25" rx="3" fill="#df875f" stroke="#172033" stroke-width="2"/><rect x="80" y="375" width="25" height="25" rx="3" fill="#df875f" stroke="#172033" stroke-width="2"/><rect x="155" y="400" width="25" height="25" rx="3" fill="#df875f" stroke="#172033" stroke-width="2"/><rect x="105" y="400" width="25" height="25" rx="3" fill="#df875f" stroke="#172033" stroke-width="2"/><rect x="130" y="375" width="25" height="25" rx="3" fill="#df875f" stroke="#172033" stroke-width="2"/><rect x="155" y="375" width="25" height="25" rx="3" fill="#df875f" stroke="#172033" stroke-width="2"/><rect x="155" y="425" width="25" height="25" rx="3" fill="#df875f" stroke="#172033" stroke-width="2"/><rect x="245" y="330" width="185" height="195" fill="#fff" stroke="#7d8799"/><text x="253" y="355" class="label">B</text><rect x="315" y="425" width="25" height="25" rx="3" fill="#df875f" stroke="#172033" stroke-width="2"/><rect x="340" y="400" width="25" height="25" rx="3" fill="#df875f" stroke="#172033" stroke-width="2"/><rect x="290" y="375" width="25" height="25" rx="3" fill="#df875f" stroke="#172033" stroke-width="2"/><rect x="315" y="400" width="25" height="25" rx="3" fill="#df875f" stroke="#172033" stroke-width="2"/><rect x="340" y="375" width="25" height="25" rx="3" fill="#df875f" stroke="#172033" stroke-width="2"/><rect x="340" y="450" width="25" height="25" rx="3" fill="#df875f" stroke="#172033" stroke-width="2"/><rect x="315" y="375" width="25" height="25" rx="3" fill="#df875f" stroke="#172033" stroke-width="2"/><rect x="315" y="450" width="25" height="25" rx="3" fill="#df875f" stroke="#172033" stroke-width="2"/><rect x="455" y="330" width="185" height="195" fill="#fff" stroke="#7d8799"/><text x="463" y="355" class="label">C</text><rect x="500" y="400" width="25" height="25" rx="3" fill="#df875f" stroke="#172033" stroke-width="2"/><rect x="550" y="400" width="25" height="25" rx="3" fill="#df875f" stroke="#172033" stroke-width="2"/><rect x="575" y="400" width="25" height="25" rx="3" fill="#df875f" stroke="#172033" stroke-width="2"/><rect x="525" y="400" width="25" height="25" rx="3" fill="#df875f" stroke="#172033" stroke-width="2"/><rect x="575" y="375" width="25" height="25" rx="3" fill="#df875f" stroke="#172033" stroke-width="2"/><rect x="500" y="425" width="25" height="25" rx="3" fill="#df875f" stroke="#172033" stroke-width="2"/><rect x="550" y="425" width="25" height="25" rx="3" fill="#df875f" stroke="#172033" stroke-width="2"/><rect x="575" y="425" width="25" height="25" rx="3" fill="#df875f" stroke="#172033" stroke-width="2"/><rect x="665" y="330" width="185" height="195" fill="#fff" stroke="#7d8799"/><text x="673" y="355" class="label">D</text><rect x="710" y="400" width="25" height="25" rx="3" fill="#df875f" stroke="#172033" stroke-width="2"/><rect x="735" y="425" width="25" height="25" rx="3" fill="#df875f" stroke="#172033" stroke-width="2"/><rect x="710" y="375" width="25" height="25" rx="3" fill="#df875f" stroke="#172033" stroke-width="2"/><rect x="735" y="400" width="25" height="25" rx="3" fill="#df875f" stroke="#172033" stroke-width="2"/><rect x="710" y="450" width="25" height="25" rx="3" fill="#df875f" stroke="#172033" stroke-width="2"/><rect x="760" y="375" width="25" height="25" rx="3" fill="#df875f" stroke="#172033" stroke-width="2"/><rect x="735" y="375" width="25" height="25" rx="3" fill="#df875f" stroke="#172033" stroke-width="2"/><rect x="735" y="450" width="25" height="25" rx="3" fill="#df875f" stroke="#172033" stroke-width="2"/></svg>