<svg xmlns="http://www.w3.org/2000/svg" width="900" height="560" viewBox="0 0 900 560"><rect width="100%" height="100%" fill="#f8f5ed"/><style>text{font-family:Arial,sans-serif;fill:#172033}.label{font-weight:700;font-size:24px}.small{font-size:16px}</style><text x="35" y="38" class="label">TARGET CUTOUT Y</text><rect x="30" y="55" width="420" height="460" fill="#fff" stroke="#172033" stroke-width="3"/><line x1="50" y1="75" x2="50" y2="480" stroke="#d7dbe2"/><line x1="50" y1="75" x2="410" y2="75" stroke="#d7dbe2"/><line x1="95" y1="75" x2="95" y2="480" stroke="#d7dbe2"/><line x1="50" y1="120" x2="410" y2="120" stroke="#d7dbe2"/><line x1="140" y1="75" x2="140" y2="480" stroke="#d7dbe2"/><line x1="50" y1="165" x2="410" y2="165" stroke="#d7dbe2"/><line x1="185" y1="75" x2="185" y2="480" stroke="#d7dbe2"/><line x1="50" y1="210" x2="410" y2="210" stroke="#d7dbe2"/><line x1="230" y1="75" x2="230" y2="480" stroke="#d7dbe2"/><line x1="50" y1="255" x2="410" y2="255" stroke="#d7dbe2"/><line x1="275" y1="75" x2="275" y2="480" stroke="#d7dbe2"/><line x1="50" y1="300" x2="410" y2="300" stroke="#d7dbe2"/><line x1="320" y1="75" x2="320" y2="480" stroke="#d7dbe2"/><line x1="50" y1="345" x2="410" y2="345" stroke="#d7dbe2"/><line x1="365" y1="75" x2="365" y2="480" stroke="#d7dbe2"/><line x1="50" y1="390" x2="410" y2="390" stroke="#d7dbe2"/><line x1="410" y1="75" x2="410" y2="480" stroke="#d7dbe2"/><line x1="50" y1="435" x2="410" y2="435" stroke="#d7dbe2"/><rect x="185" y="165" width="45" height="45" rx="3" fill="#ece7db" stroke="#172033" stroke-width="2"/><rect x="230" y="210" width="45" height="45" rx="3" fill="#ece7db" stroke="#172033" stroke-width="2"/><rect x="230" y="165" width="45" height="45" rx="3" fill="#ece7db" stroke="#172033" stroke-width="2"/><rect x="185" y="255" width="45" height="45" rx="3" fill="#ece7db" stroke="#172033" stroke-width="2"/><rect x="275" y="120" width="45" height="45" rx="3" fill="#ece7db" stroke="#172033" stroke-width="2"/><rect x="185" y="210" width="45" height="45" rx="3" fill="#ece7db" stroke="#172033" stroke-width="2"/><rect x="230" y="120" width="45" height="45" rx="3" fill="#ece7db" stroke="#172033" stroke-width="2"/><text x="500" y="38" class="label">CANDIDATE PIECES</text><rect x="490" y="60" width="180" height="190" fill="#fff" stroke="#7d8799"/><text x="500" y="240" class="label">A</text><rect x="553" y="136" width="28" height="28" rx="3" fill="#e86f51" stroke="#172033" stroke-width="2"/><rect x="581" y="108" width="28" height="28" rx="3" fill="#e86f51" stroke="#172033" stroke-width="2"/><rect x="609" y="108" width="28" height="28" rx="3" fill="#e86f51" stroke="#172033" stroke-width="2"/><rect x="553" y="108" width="28" height="28" rx="3" fill="#e86f51" stroke="#172033" stroke-width="2"/><rect x="609" y="80" width="28" height="28" rx="3" fill="#e86f51" stroke="#172033" stroke-width="2"/><rect x="525" y="136" width="28" height="28" rx="3" fill="#e86f51" stroke="#172033" stroke-width="2"/><rect x="581" y="136" width="28" height="28" rx="3" fill="#e86f51" stroke="#172033" stroke-width="2"/><rect x="690" y="60" width="180" height="190" fill="#fff" stroke="#7d8799"/><text x="700" y="240" class="label">B</text><rect x="725" y="108" width="28" height="28" rx="3" fill="#4e9f75" stroke="#172033" stroke-width="2"/><rect x="753" y="136" width="28" height="28" rx="3" fill="#4e9f75" stroke="#172033" stroke-width="2"/><rect x="725" y="80" width="28" height="28" rx="3" fill="#4e9f75" stroke="#172033" stroke-width="2"/><rect x="753" y="108" width="28" height="28" rx="3" fill="#4e9f75" stroke="#172033" stroke-width="2"/><rect x="725" y="136" width="28" height="28" rx="3" fill="#4e9f75" stroke="#172033" stroke-width="2"/><rect x="781" y="136" width="28" height="28" rx="3" fill="#4e9f75" stroke="#172033" stroke-width="2"/><rect x="753" y="80" width="28" height="28" rx="3" fill="#4e9f75" stroke="#172033" stroke-width="2"/><rect x="490" y="290" width="180" height="190" fill="#fff" stroke="#7d8799"/><text x="500" y="470" class="label">C</text><rect x="525" y="338" width="28" height="28" rx="3" fill="#5577cc" stroke="#172033" stroke-width="2"/><rect x="553" y="366" width="28" height="28" rx="3" fill="#5577cc" stroke="#172033" stroke-width="2"/><rect x="581" y="338" width="28" height="28" rx="3" fill="#5577cc" stroke="#172033" stroke-width="2"/><rect x="553" y="338" width="28" height="28" rx="3" fill="#5577cc" stroke="#172033" stroke-width="2"/><rect x="581" y="366" width="28" height="28" rx="3" fill="#5577cc" stroke="#172033" stroke-width="2"/><rect x="553" y="310" width="28" height="28" rx="3" fill="#5577cc" stroke="#172033" stroke-width="2"/><rect x="609" y="366" width="28" height="28" rx="3" fill="#5577cc" stroke="#172033" stroke-width="2"/><rect x="690" y="290" width="180" height="190" fill="#fff" stroke="#7d8799"/><text x="700" y="470" class="label">D</text><rect x="809" y="338" width="28" height="28" rx="3" fill="#d39a30" stroke="#172033" stroke-width="2"/><rect x="725" y="394" width="28" height="28" rx="3" fill="#d39a30" stroke="#172033" stroke-width="2"/><rect x="809" y="310" width="28" height="28" rx="3" fill="#d39a30" stroke="#172033" stroke-width="2"/><rect x="781" y="394" width="28" height="28" rx="3" fill="#d39a30" stroke="#172033" stroke-width="2"/><rect x="781" y="366" width="28" height="28" rx="3" fill="#d39a30" stroke="#172033" stroke-width="2"/><rect x="809" y="366" width="28" height="28" rx="3" fill="#d39a30" stroke="#172033" stroke-width="2"/><rect x="753" y="394" width="28" height="28" rx="3" fill="#d39a30" stroke="#172033" stroke-width="2"/></svg>